<?xml version="1.0" encoding="utf-8"?>

<!DOCTYPE svg PUBLIC "-//W3C//DTD SVG 1.1//EN" "http://www.w3.org/Graphics/SVG/1.1/DTD/svg11.dtd">
<svg version="1.1" id="Layer_1" xmlns="http://www.w3.org/2000/svg" xmlns:xlink="http://www.w3.org/1999/xlink" x="0px" y="0px"
	 viewBox="0 0 2560 1600" enable-background="new 0 0 2560 1600" xml:space="preserve">
<pattern  width="160" height="160" patternUnits="userSpaceOnUse" id="New_Pattern" viewBox="23.9624 -179.4155 160 160" overflow="visible">
	<g>
		<polygon fill="none" points="23.9624,-179.4155 183.9624,-179.4155 183.9624,-19.4155 23.9624,-19.4155 		"/>
		<g>
			<g>
				<path fill="#92D8F6" stroke="#92D8F6" stroke-width="0.0484" d="M184.847-23.8584c3.1909-2.8501,7.3732-4.0274,11.163-5.8242
					c2.246-1.012,3.4697-3.2374,4.6676-5.2614c-0.4699,2.0034-1.6264,3.8105-3.2116,5.1065
					c-1.9517,1.4973-4.332,2.2357-6.5264,3.2838c-4.8432,2.2925-8.8447,6.2941-11.1114,11.1476
					c3.9964-0.0207,8.1425-0.346,11.7929-2.1221c4.301-1.8278,7.6933-5.7003,8.8912-10.2285
					c1.4509-4.554,0.8003-9.3714,0.8778-14.0648c-1.1411,2.7211-2.3029,5.912-5.2304,7.1666
					c-4.332,2.2719-10.1872,1.4096-13.533,5.4782c-2.4526,3.4852-2.7417,7.9618-3.1548,12.0769
					C181.1191-19.4593,182.5132-22.0771,184.847-23.8584z"/>
				<path fill="#92D8F6" stroke="#92D8F6" stroke-width="0.0484" d="M150.5783-34.9749c3.0721-0.8003,6.1701,2.7417,5.0239,5.7003
					c-0.9449,2.0137-2.9482,3.2116-4.3062,4.9155c-1.833,2.2822-2.4577,5.282-2.2822,8.158
					c2.2977-5.1426,7.5952-7.5745,11.4057-11.3696c-0.4802,1.8433-1.7245,3.3407-3.2838,4.394
					c-3.0618,2.2512-6.8981,4.332-7.6262,8.4368c1.8226-0.9604,3.5885-2.0911,5.5919-2.6694
					c2.0034-0.6299,4.1151-0.9139,6.0824-1.6936c1.265-0.4286,1.8536-1.7194,2.499-2.7882c0.79,2.9224,4.0532,3.2735,6.5264,3.9137
					c2.7572,0.5473,5.2459,1.8846,7.683,3.2322c-0.6402-3.0412-2.9689-5.2872-5.5041-6.8878
					c-2.5094-1.6626-5.5144-3.604-5.6796-6.955c2.1685,2.5765,4.869,4.585,7.528,6.6193c1.9001,1.3838,3.0876,3.4439,4.2391,5.4421
					c0.4595-3.3303-0.7384-6.8259-3.1806-9.1442c-1.2856-1.327-2.9999-2.4939-3.3303-4.4404
					c-0.6609-2.8863,2.5094-5.9223,5.3594-4.8896c2.1222,0.6299,3.5111,2.4577,4.6831,4.2236
					c-0.1291-1.3786-0.315-2.8346-1.3012-3.888c-2.9586-3.9912-10.0374-4.2597-12.7688,0.0878
					c-1.1824,1.5645-0.8158,3.6298-1.3838,5.3853c-1.2391,1.74-2.3803,3.5575-2.9637,5.6331
					c-0.6764-2.5816-3.2012-4.4662-2.8759-7.2906c0.1859-3.0412-2.1789-5.8035-5.029-6.578
					c-2.5972-0.5576-5.4525,0.0103-7.5591,1.6471c-1.4561,1.1514-2.1169,2.9586-2.5507,4.6986
					C147.1086-32.5224,148.4303-34.407,150.5783-34.9749z"/>
				<path fill="#92D8F6" stroke="#92D8F6" stroke-width="0.0484" d="M133.9938-18.9481c3.4956,2.6333,8.1012,3.0257,12.3299,3.2942
					c-2.3441-1.6212-4.9361-2.9844-6.6762-5.313c-2.8759-3.1703-4.0273-7.3577-5.9016-11.1011
					c-2.2874-3.6866-6.9808-5.912-11.2818-5.0549c1.6987,1.1308,3.7641,1.7813,5.153,3.3458
					C131.3863-29.6103,129.6979-22.7844,133.9938-18.9481z"/>
				<path fill="#92D8F6" stroke="#92D8F6" stroke-width="0.0484" d="M136.9678-27.0235c2.2667,4.9619,6.5006,8.8963,11.3954,11.2095
					c-0.0516-5.757-1.0998-12.0614-5.3285-16.3057c-3.8002-3.9912-9.5779-5.2097-14.891-5.153
					c1.3734,1.2702,3.2839,1.74,4.6367,3.036C134.887-32.3158,135.7338-29.507,136.9678-27.0235z"/>
				<path fill="#92D8F6" stroke="#92D8F6" stroke-width="0.0484" d="M154.4404-29.9459c0.3511-2.2925-2.0912-4.2804-4.2804-3.7537
					c-3.1754,0.4492-3.6814,5.4318-0.7693,6.5987C151.4973-26.0321,154.2855-27.5811,154.4404-29.9459z"/>
				<path fill="#92D8F6" stroke="#92D8F6" stroke-width="0.0484" d="M180.1742-29.5948c0.7435-2.6488-2.1841-5.0135-4.6573-4.0635
					c-1.9465,0.6971-3.1082,3.258-1.8329,5.0445C175.0316-25.9134,179.7612-26.5071,180.1742-29.5948z"/>
			</g>
		</g>
		<g>
			<g>
				<path fill="#92D8F6" stroke="#92D8F6" stroke-width="0.0484" d="M24.847-23.8584c3.1909-2.8501,7.3732-4.0274,11.163-5.8242
					c2.246-1.012,3.4697-3.2374,4.6676-5.2614c-0.4699,2.0034-1.6264,3.8105-3.2116,5.1065
					c-1.9517,1.4973-4.3319,2.2357-6.5263,3.2838c-4.8432,2.2925-8.8447,6.2941-11.1114,11.1476
					c3.9964-0.0207,8.1425-0.346,11.7929-2.1221c4.301-1.8278,7.6933-5.7003,8.8912-10.2285
					c1.4509-4.554,0.8003-9.3714,0.8778-14.0648c-1.1411,2.7211-2.3029,5.912-5.2304,7.1666
					c-4.332,2.2719-10.1872,1.4096-13.533,5.4782c-2.4526,3.4852-2.7417,7.9618-3.1548,12.0769
					C21.1191-19.4593,22.5132-22.0771,24.847-23.8584z"/>
			</g>
		</g>
		<g>
			<g>
				<path fill="#92D8F6" stroke="#92D8F6" stroke-width="0.0484" d="M175.7149-85.9773c4.8122,0.3717,9.0513,2.9895,13.6879,4.11
					c6.8362,1.9053,14.2301,1.4251,20.9165-0.8416c-5.2046-5.3233-11.6432-9.9187-19.1093-11.2353
					c-6.1288-1.1979-12.5519,0.5421-17.6791,3.9757c-2.8243,1.9414-5.6641,3.9912-7.8121,6.6916
					C168.951-84.4644,172.1368-86.2716,175.7149-85.9773z"/>
				<path fill="#92D8F6" stroke="#92D8F6" stroke-width="0.0484" d="M195.9963-72.181c5.029-1.962,9.2371-5.5092,13.3626-8.8963
					c-2.7417,0.8416-5.4989,1.7142-8.3593,1.9724c-5.5505,0.6196-11.0701-0.8726-16.1921-2.8811
					c-3.5679-1.4664-7.208-3.3819-11.1785-3.129c-5.2975,0.568-10.657,3.1186-13.5692,7.7294
					c1.5438-0.5989,3.036-1.3424,4.585-1.9517c2.6591-1.043,5.7055-1.1514,8.4059-0.1549c4.4249,1.6109,8.189,4.5282,12.2783,6.7897
					C188.5922-71.0037,192.5834-70.7663,195.9963-72.181z"/>
			</g>
		</g>
		<g>
			<g>
				<path fill="#92D8F6" stroke="#92D8F6" stroke-width="0.0484" d="M81.7792-115.6146c-0.3563-1.7916-0.9036-3.5265-1.3322-5.2975
					c-1.0843-5.3285-0.5576-10.9203,1.2908-16.0217c1.3425-4.141,3.8622-7.9257,4.2546-12.3454
					c0.3407-2.2615-0.5422-4.4404-0.8313-6.6503c2.4887,3.9706,1.9466,9.1648,0.1808,13.3161
					c-1.5852,3.6453-2.845,7.4454-3.4956,11.3747c-0.7332,5.5351-0.1755,11.2663,1.8794,16.4761
					c4.2235-4.2339,8.096-9.0461,10.1665-14.7257c1.6677-4.5643,1.9879-9.6863,0.5163-14.3488
					c-1.5903-5.2098-4.8638-9.7121-8.5814-13.6104c-0.95-0.9656-2.3493-1.3941-3.0825-2.5765
					c-1.2082-1.7968-2.8914-3.1702-4.5747-4.4869c1.5748,3.4594,3.5007,7.1718,2.6797,11.0959
					c-1.265,5.9119-5.8655,10.2956-8.1322,15.7738c-1.6213,4.0222-0.3046,8.5504,1.833,12.1131
					C76.7037-122.048,79.306-118.8726,81.7792-115.6146z"/>
				<path fill="#92D8F6" stroke="#92D8F6" stroke-width="0.0484" d="M56.1899-115.5113c5.3441,1.6987,10.8739-0.315,16.285-0.4337
					c2.9482-0.1239,5.8035,0.6816,8.6227,1.4457c-2.7675-3.6092-7.1098-6.103-11.6948-6.2373
					c-3.1135-0.253-6.5884,0.6816-9.3662-1.1463c-3.4181-2.1014-3.6195-7.4868-0.7745-10.1304
					c3.0102-2.1427,6.9394-1.7916,10.404-1.265c-5.2769-4.8741-14.5192-2.3287-17.6223,3.8208
					C49.3693-124.6968,51.4501-118.0826,56.1899-115.5113z"/>
				<path fill="#92D8F6" stroke="#92D8F6" stroke-width="0.0484" d="M84.7791-114.2411c3.4852-1.2392,7.2183-1.9724,10.9255-1.4819
					c4.8432,0.6041,9.7638,1.7297,14.6173,0.537c-1.0895,0.95-2.2306,1.993-3.7228,2.1892
					c-4.5179,0.7487-8.979-0.6816-13.4503-1.0894c-3.0722-0.2169-6.5523-0.0361-8.917,2.1841
					c2.7314,0.6661,5.4782,1.3786,8.0134,2.6488c3.3045,1.4612,6.1546,3.8467,9.6037,5.0032
					c1.549,0.5473,3.1496-0.0929,4.616-0.6196c-0.2788,0.6971-0.5576,1.3889-0.7642,2.1066
					c-0.8622,2.3699,0.8675,4.5747,1.9466,6.5522c2.6798,4.0429,4.9464,8.4368,5.7416,13.2697
					c0.8881-1.1514,1.7968-2.3648,2.0189-3.8467c1.0843-5.2149-1.0998-10.3266-1.1617-15.526
					c-0.1033-2.0395,0.599-4.048,1.9517-5.5763c-0.031,2.0188-0.222,4.0428,0.0051,6.0617
					c0.3305,3.2942,1.1876,6.5419,1.0637,9.8774c-0.0052,2.752-0.8623,5.3956-1.7659,7.9618
					c3.2168-2.6849,5.974-6.2785,6.4748-10.5538c0.7074-3.3148-0.5938-6.9033,0.9191-10.0529
					c2.0911-4.1306,8.8085-4.4353,11.194-0.4544c1.58,2.876,1.0637,6.3199,0.7229,9.4333c1.4922-1.7503,2.4939-3.9241,2.5455-6.2476
					c0.444-5.7312-3.9964-11.2766-9.6037-12.3041c-3.0051-0.4957-6.0979,0.5576-8.4524,2.4113
					c-1.1772,0.8881-1.7658,2.6075-3.3716,2.8191c-2.6436,0.537-5.2304,1.296-7.6778,2.4268
					c1.2753-2.53,2.2409-5.2149,2.6229-8.0341c0.1498-1.7349,1.7245-2.7365,2.6436-4.0687
					c1.6522-2.3803,2.4422-5.4834,1.6574-8.3232c-1.4612-5.5041-7.3267-9.3817-12.9547-8.7053
					c-2.2976,0.1807-4.3372,1.358-6.1081,2.752c3.4956-0.759,7.5952-1.3218,10.6828,0.9346
					c3.4388,2.6746,2.7262,8.7724-1.1979,10.6364c-3.1186,1.3993-6.6039,0.2995-9.8722,0.7848
					C91.3365-120.2099,87.5983-117.4424,84.7791-114.2411z"/>
				<path fill="#92D8F6" stroke="#92D8F6" stroke-width="0.0484" d="M62.8299-132.0596c-3.7485,1.0069-4.5333,6.5832-1.5025,8.8396
					c2.8914,2.5042,8.2509,0.5886,8.4678-3.3613C70.4923-130.2835,66.2532-133.5932,62.8299-132.0596z"/>
				<path fill="#92D8F6" stroke="#92D8F6" stroke-width="0.0484" d="M103.1655-122.172c3.2426-0.8055,4.9-5.2717,2.7211-7.8998
					c-1.2237-1.9465-3.7692-2.3906-5.8707-1.9569c-2.6074,0.8003-4.3681,3.9189-3.3561,6.5367
					C97.393-122.838,100.5839-121.2425,103.1655-122.172z"/>
				<path fill="#92D8F6" stroke="#92D8F6" stroke-width="0.0484" d="M32.4853-105.1124c2.2718-3.4026,7.6468-3.604,10.3059-0.5473
					c2.1996,2.2667,1.4354,5.6641,1.5025,8.5143c-0.2324,5.1943,2.561,10.1097,6.5264,13.3109
					c-1.1566-3.2787-1.9776-6.7381-1.5439-10.2336c0.5422-4.4559,1.3993-8.8963,1.1566-13.409
					c2.7004,3.6143,1.2546,8.3026,0.6919,12.3609c-0.7848,4.0377-1.0791,8.6279,1.549,12.0976
					c0.9139-1.9362,1.1617-4.0997,2.0189-6.0617c1.518-3.7899,4.3113-6.9137,5.8087-10.7138
					c0.8467-1.9724-0.0775-4.048-1.2908-5.6177c1.1927,0.7229,2.4887,1.5128,3.9499,1.3579
					c2.9018-0.2272,5.2356-2.1221,7.6726-3.5162c3.4284-2.1066,7.2441-3.4956,11.1889-4.2804
					c-1.2237-1.4405-3.1703-1.8846-4.9412-2.1841c-5.7313-0.6299-11.3076,1.9053-17.0389,1.0998
					c-1.8794-0.2633-3.289-1.6316-4.7709-2.6849c0.3511,3.2374,1.3734,6.3405,2.8914,9.2113
					c-2.623-1.3889-5.4937-2.0757-8.3697-2.6643c-2.1582-2.4526-4.8483-4.7399-8.2509-5.0342
					c-5.4731-0.6816-10.5692,3.5214-11.9943,8.6485c-1.1307,3.4233-0.1343,7.2699,2.1118,10.0168
					C31.3907-98.648,30.7969-102.1797,32.4853-105.1124z"/>
				<path fill="#92D8F6" stroke="#92D8F6" stroke-width="0.0484" d="M37.0342-105.6597c-1.4612,0.3511-2.9173,1.1566-3.6814,2.4835
					c-1.5128,2.3286-0.6609,5.881,1.8898,7.0995c2.9069,1.8794,7.4764-0.0775,7.7139-3.6556
					C43.7258-103.1091,40.3025-106.2122,37.0342-105.6597z"/>
				<path fill="#92D8F6" stroke="#92D8F6" stroke-width="0.0484" d="M127.9029-105.7114c-3.5627,0.4131-5.788,4.8535-3.6349,7.8534
					c2.0343,3.7124,8.3025,2.9792,9.3559-1.1514C134.9921-102.505,131.4707-106.362,127.9029-105.7114z"/>
				<path fill="#92D8F6" stroke="#92D8F6" stroke-width="0.0484" d="M15.7149-85.9773c4.8122,0.3717,9.0513,2.9895,13.6879,4.11
					c6.8362,1.9053,14.2301,1.4251,20.9165-0.8416c-5.2046-5.3233-11.6432-9.9187-19.1093-11.2353
					c-6.1288-1.1979-12.5519,0.5421-17.6791,3.9757c-2.8243,1.9414-5.6641,3.9912-7.8121,6.6916
					C8.951-84.4644,12.1368-86.2716,15.7149-85.9773z"/>
				<path fill="#92D8F6" stroke="#92D8F6" stroke-width="0.0484" d="M155.7795-84.9859
					c-5.7106-0.9242-10.1252-4.9981-15.1439-7.5229c-3.4336-1.6574-7.5384-1.7142-11.0082-0.1291
					c-4.6315,2.1118-8.5814,5.4008-12.5778,8.4884c3.5214-0.8313,7.0324-1.962,10.6984-1.9259
					c6.5263-0.1807,12.619,2.5352,18.5207,4.9877c3.5885,1.5748,7.5693,1.1772,11.2869,0.3408
					c-3.1031,1.9775-7.1047,1.9724-10.5486,1.0275c-3.8311-1.1463-7.4454-2.9482-11.3696-3.7744
					c-6.4644-1.5903-13.3678-1.0327-19.5998,1.2392c5.344,5.3905,11.9479,9.9703,19.5585,11.256
					c6.4025,1.1256,12.9805-1.0172,18.1799-4.7399c2.6333-1.9465,5.3492-3.8983,7.3164-6.5625
					c1.7607-1.6936,3.8157-3.1238,5.0962-5.2666C162.8738-86.2148,159.4764-84.4231,155.7795-84.9859z"/>
				<path fill="#92D8F6" stroke="#92D8F6" stroke-width="0.0484" d="M35.9963-72.181c5.029-1.962,9.2371-5.5092,13.3626-8.8963
					c-2.7417,0.8416-5.4989,1.7142-8.3593,1.9724c-5.5505,0.6196-11.0701-0.8726-16.1921-2.8811
					c-3.5679-1.4664-7.208-3.3819-11.1785-3.129c-5.2975,0.568-10.657,3.1186-13.5691,7.7294
					c1.5438-0.5989,3.036-1.3424,4.585-1.9517c2.6591-1.043,5.7055-1.1514,8.4058-0.1549c4.4249,1.6109,8.189,4.5282,12.2783,6.7897
					C28.5922-71.0037,32.5834-70.7663,35.9963-72.181z"/>
				<path fill="#92D8F6" stroke="#92D8F6" stroke-width="0.0484" d="M59.5255-32.5889c-2.9999-2.499-2.8915-7.7966,0.3407-10.0684
					c2.7262-2.0911,6.325-0.9604,9.4798-1.2495c4.7864-0.031,9.0616-2.7779,12.1337-6.2785
					c-4.6676,1.6574-9.7069,1.7503-14.5398,0.8571c-3.3458-0.6712-6.7536-0.7074-10.1407-0.4544
					c3.6711-2.0756,8.0754-1.4096,12.0304-0.6816c4.5024,0.8313,9.5263,1.2857,13.5227-1.4302
					c-1.5748-0.4802-3.1703-0.8726-4.7399-1.3373c-4.2235-1.234-7.7501-3.9654-11.6328-5.9068
					c-2.0034-1.043-4.3734-0.8261-6.3302,0.191c0.5938-1.2857,1.4405-2.6384,1.0946-4.1203
					c-0.5215-3.0154-2.7262-5.313-4.1049-7.9463c-1.9259-3.0773-2.9534-6.5729-3.8363-10.0581
					c-2.8966,3.6453-2.4164,8.571-1.5593,12.8411c0.6764,4.1151,1.8639,9.1235-1.4044,12.4797
					c1.4044-6.5884-1.5335-13.1199-0.4802-19.7134c0.2685-1.7968,0.9552-3.4904,1.4974-5.2098
					c-3.4852,3.0205-6.4902,7.115-6.6348,11.8962c-0.315,3.2012,0.8622,6.8982-1.3373,9.6502
					c-2.4835,3.4284-8.4213,3.2425-10.6054-0.4079c-1.6781-2.9069-0.8726-6.387-0.7229-9.5521
					c-0.8416,1.1721-1.6729,2.3803-2.1014,3.7692c-2.0705,5.9326,2.0446,12.9031,7.9514,14.6069
					c3.3149,1.1411,6.9911-0.0413,9.6657-2.1273c1.0791-0.8261,1.9156-2.1686,3.4129-2.2357
					c2.7056-0.3408,5.282-1.2805,7.6984-2.5249c-1.1462,2.2357-2.1582,4.5695-2.5506,7.0685
					c-0.1498,1.2082-0.6815,2.3028-1.5851,3.1238c-2.783,2.6694-3.8157,6.9498-2.6437,10.6106
					c1.4768,3.9241,5.1013,6.924,9.2165,7.7036c3.2683,0.7229,6.7639-0.2995,9.3507-2.3648
					C66.5011-31.2568,62.5873-30.4978,59.5255-32.5889z"/>
				<path fill="#92D8F6" stroke="#92D8F6" stroke-width="0.0484" d="M133.4379-58.932c-2.5558,3.1651-8.0651,2.8605-10.3111-0.5267
					c-2.1221-3.0464-0.697-6.8878-1.2289-10.2904c-0.3305-4.2545-2.9275-7.9825-6.0978-10.6777
					c0.5628,2.4938,1.3683,4.9723,1.3683,7.5539c0.0981,3.5059-0.8985,6.9136-1.1101,10.3937
					c-0.2014,2.2512,0.0154,4.5127,0.2427,6.7536c-0.6351-0.9655-1.3683-1.9053-1.6626-3.036
					c-0.9346-4.5695,0.5886-9.0925,1.012-13.6208c0.191-2.9069,0.0775-6.3199-2.2202-8.442
					c-0.9707,5.029-3.3767,9.5831-6.1959,13.8015c-1.6781,2.3338-2.277,5.5144-0.6402,8.0392
					c-2.2615-1.1514-4.9671-1.1669-7.0995,0.2788c-4.8018,2.8346-9.6914,5.7777-15.304,6.6348
					c1.234,1.0172,2.6643,1.8485,4.2907,2.0343c6.134,1.0636,12.1337-1.9827,18.2677-0.8829
					c1.0843,0.1239,1.9466,0.8365,2.7314,1.549c-2.7934-0.506-5.6383-0.5421-8.4265-0.0052
					c-5.313,0.8984-10.8997,1.1463-16.001-0.8519c2.8346,3.5627,7.0634,6.1701,11.6794,6.4231
					c2.9637,0.3098,6.1236-0.5318,8.9428,0.7332c3.9396,1.8691,4.6676,8.1064,1.1101,10.7035
					c-3.1548,2.0447-7.1408,1.5955-10.6312,0.8416c1.4354,1.0533,2.9585,2.0808,4.7244,2.4835
					c5.943,1.549,12.6656-2.3751,14.3436-8.2613c0.8777-3.1496-0.0826-6.578-2.0757-9.1029
					c-0.8416-1.0739-2.1118-1.9362-2.2874-3.3819c-0.4853-2.7107-1.3889-5.3285-2.7211-7.7346
					c2.3597,1.234,4.8897,2.1221,7.5487,2.4422c1.3167,0.0723,2.2202,1.0894,3.1497,1.9053
					c3.2632,3.005,8.5607,3.7899,12.3557,1.3115c5.8552-3.1393,8.22-11.9582,3.5162-17.0595
					C135.0902-65.5771,135.5652-61.8337,133.4379-58.932z"/>
				<path fill="#92D8F6" stroke="#92D8F6" stroke-width="0.0484" d="M36.5075-69.0159c-3.7279,0.6816-5.4731,5.7726-2.7159,8.4833
					c2.5559,3.129,8.158,1.7142,8.9996-2.2099C43.8497-66.362,40.065-69.9608,36.5075-69.0159z"/>
				<path fill="#92D8F6" stroke="#92D8F6" stroke-width="0.0484" d="M130.8408-59.4277c2.6746-1.1979,3.7898-4.8793,2.1531-7.3319
					c-1.1721-1.8691-3.4956-2.8191-5.6383-2.308c-3.0051,0.5989-4.9619,4.1358-3.6814,6.9601
					C124.7068-59.3657,128.254-57.951,130.8408-59.4277z"/>
				<path fill="#92D8F6" stroke="#92D8F6" stroke-width="0.0484" d="M84.6862-48.5641c0.4182,2.117,0.9913,4.2029,1.4612,6.3147
					c0.981,5.0239,0,10.213-1.6781,14.9787c-1.0946,3.2735-2.7727,6.3147-3.7641,9.6244c-0.7848,2.6488-0.1084,5.4111-0.0103,8.1012
					c-1.1153-2.339-1.58-5.0032-1.0637-7.5591c0.8209-4.647,3.32-8.7827,4.3062-13.3936c1.5077-6.356,0.9449-13.1044-1.1927-19.2539
					c-4.7089,4.2855-8.6227,9.6708-10.6312,15.7584c-1.9879,5.9171-1.2392,12.6139,1.7916,18.0508
					c2.1221,3.795,4.9,7.2131,8.0495,10.2027c0-0.4389,0-1.327,0.0052-1.771c1.2237,3.0722,3.4594,5.5557,6.1443,7.4455
					c-1.2599-3.3355-3.3149-6.6245-2.7366-10.3472c0.9346-5.85,5.2718-10.2698,7.7811-15.4434
					c1.2908-2.6178,1.5954-5.7003,0.697-8.4936C92.1885-39.8485,88.1972-44.1753,84.6862-48.5641z"/>
				<path fill="#92D8F6" stroke="#92D8F6" stroke-width="0.0484" d="M62.7835-42.2546c-1.3941,0.537-2.5506,1.6523-2.9741,3.1031
					c-1.2082,2.943,1.1979,6.7484,4.4146,6.7639c3.2426,0.5318,6.2837-2.7211,5.6589-5.9171
					C69.5009-41.4852,65.6904-43.6538,62.7835-42.2546z"/>
				<path fill="#92D8F6" stroke="#92D8F6" stroke-width="0.0484" d="M106.5062-35.2841c1.9414-3.8415-2.5093-8.6124-6.4903-6.8878
					c-3.511,0.8674-4.7038,5.9636-2.0705,8.3852C100.3-31.1328,105.1844-31.9641,106.5062-35.2841z"/>
			</g>
			<g>
				<path fill="#92D8F6" stroke="#92D8F6" stroke-width="0.0484" d="M184.847-183.8584c3.1909-2.8501,7.3732-4.0274,11.163-5.8242
					c2.246-1.012,3.4697-3.2374,4.6676-5.2614c-0.4699,2.0034-1.6264,3.8105-3.2116,5.1065
					c-1.9517,1.4973-4.332,2.2357-6.5264,3.2838c-4.8432,2.2925-8.8447,6.2941-11.1114,11.1476
					c3.9964-0.0207,8.1425-0.346,11.7929-2.1221c4.301-1.8278,7.6933-5.7003,8.8912-10.2285
					c1.4509-4.554,0.8003-9.3714,0.8778-14.0648c-1.1411,2.7211-2.3029,5.912-5.2304,7.1666
					c-4.332,2.2719-10.1872,1.4096-13.533,5.4782c-2.4526,3.4852-2.7417,7.9618-3.1548,12.077
					C181.1191-179.4593,182.5132-182.0771,184.847-183.8584z"/>
				<path fill="#92D8F6" stroke="#92D8F6" stroke-width="0.0484" d="M150.5783-194.9749c3.0721-0.8003,6.1701,2.7417,5.0239,5.7003
					c-0.9449,2.0137-2.9482,3.2116-4.3062,4.9155c-1.833,2.2822-2.4577,5.282-2.2822,8.158
					c2.2977-5.1426,7.5952-7.5745,11.4057-11.3696c-0.4802,1.8433-1.7245,3.3407-3.2838,4.394
					c-3.0618,2.2512-6.8981,4.332-7.6262,8.4368c1.8226-0.9604,3.5885-2.0911,5.5919-2.6694
					c2.0034-0.6299,4.1151-0.9139,6.0824-1.6936c1.265-0.4286,1.8536-1.7194,2.499-2.7882c0.79,2.9224,4.0532,3.2735,6.5264,3.9138
					c2.7572,0.5473,5.2459,1.8846,7.683,3.2322c-0.6402-3.0412-2.9689-5.2872-5.5041-6.8878
					c-2.5094-1.6626-5.5144-3.604-5.6796-6.955c2.1685,2.5765,4.869,4.585,7.528,6.6194c1.9001,1.3838,3.0876,3.4439,4.2391,5.4421
					c0.4595-3.3303-0.7384-6.8259-3.1806-9.1442c-1.2856-1.327-2.9999-2.4939-3.3303-4.4404
					c-0.6609-2.8863,2.5094-5.9223,5.3594-4.8896c2.1222,0.6299,3.5111,2.4577,4.6831,4.2236
					c-0.1291-1.3786-0.315-2.8346-1.3012-3.888c-2.9586-3.9912-10.0374-4.2597-12.7688,0.0878
					c-1.1824,1.5645-0.8158,3.6298-1.3838,5.3853c-1.2391,1.74-2.3803,3.5575-2.9637,5.6331
					c-0.6764-2.5816-3.2012-4.4662-2.8759-7.2906c0.1859-3.0412-2.1789-5.8035-5.029-6.578
					c-2.5972-0.5576-5.4525,0.0103-7.5591,1.6471c-1.4561,1.1514-2.1169,2.9585-2.5507,4.6986
					C147.1086-192.5224,148.4303-194.407,150.5783-194.9749z"/>
				<path fill="#92D8F6" stroke="#92D8F6" stroke-width="0.0484" d="M133.9938-178.9481c3.4956,2.6333,8.1012,3.0257,12.3299,3.2942
					c-2.3441-1.6212-4.9361-2.9844-6.6762-5.313c-2.8759-3.1703-4.0273-7.3577-5.9016-11.1011
					c-2.2874-3.6866-6.9808-5.912-11.2818-5.0549c1.6987,1.1308,3.7641,1.7813,5.153,3.3458
					C131.3863-189.6103,129.6979-182.7844,133.9938-178.9481z"/>
				<path fill="#92D8F6" stroke="#92D8F6" stroke-width="0.0484" d="M136.9678-187.0235
					c2.2667,4.9619,6.5006,8.8963,11.3954,11.2095c-0.0516-5.757-1.0998-12.0614-5.3285-16.3057
					c-3.8002-3.9912-9.5779-5.2097-14.891-5.153c1.3734,1.2702,3.2839,1.74,4.6367,3.036
					C134.887-192.3158,135.7338-189.507,136.9678-187.0235z"/>
				<path fill="#92D8F6" stroke="#92D8F6" stroke-width="0.0484" d="M154.4404-189.9459c0.3511-2.2925-2.0912-4.2803-4.2804-3.7537
					c-3.1754,0.4492-3.6814,5.4318-0.7693,6.5987C151.4973-186.0321,154.2855-187.5811,154.4404-189.9459z"/>
				<path fill="#92D8F6" stroke="#92D8F6" stroke-width="0.0484" d="M180.1742-189.5948c0.7435-2.6488-2.1841-5.0135-4.6573-4.0635
					c-1.9465,0.6971-3.1082,3.258-1.8329,5.0445C175.0316-185.9134,179.7612-186.5071,180.1742-189.5948z"/>
				<path fill="#92D8F6" stroke="#92D8F6" stroke-width="0.0484" d="M126.1301-152.1558
					c-1.3425,4.3165,1.6574,9.8412,6.4179,10.0684c-1.74-1.4509-3.6246-3.0722-4.11-5.3956
					c-0.2892-2.9895,3.1031-5.6228,5.9223-4.4094c2.2408,1.0636,3.4646,3.4491,5.5919,4.7038
					c2.0807,1.6006,4.8121,1.6264,7.3163,1.709c-0.9036-0.5938-1.8226-1.1669-2.7004-1.7762
					c-3.6918-2.5145-5.3956-6.9446-8.9893-9.5727c2.8708,0.5731,4.4507,3.2116,6.0411,5.406
					c1.6574,2.5094,3.8983,4.8019,6.9343,5.5144c-1.0068-2.2977-2.4474-4.4198-2.9895-6.893
					c-0.6661-2.6591-1.1411-5.757-3.7486-7.2544c2.9379-1.1566,3.1082-4.5644,3.8621-7.1822
					c0.5163-2.3699,1.771-4.4662,2.8553-6.609c-2.6333,0.4182-4.6728,2.277-6.103,4.4198c-1.9104,2.4526-3.604,5.7726-7.0324,6.196
					c2.1376-1.9517,4.0377-4.1255,5.7364-6.4696c1.6161-2.2512,3.9861-3.7331,6.4335-4.9464
					c-2.3958-0.1084-4.8638,0.0929-6.9963,1.2753c-2.2719,1.0636-3.6298,3.2787-5.5815,4.7502
					c-2.6849,1.6936-6.6709-0.4131-6.7742-3.5936c0.2376-2.8088,2.7469-4.5385,4.7812-6.134
					c-1.9672,0.5215-4.1512,1.0378-5.406,2.7882c-2.8295,3.2632-2.6178,9.2475,1.4302,11.4419
					c1.8433,1.4819,4.4507,0.5215,6.3405,1.8536c1.4715,0.981,3.0463,1.8381,4.8018,2.2151
					c-3.005,0.3924-5.1426,3.0928-8.2354,2.9947C129.2694-156.7408,126.7858-154.7994,126.1301-152.1558z"/>
				<path fill="#92D8F6" stroke="#92D8F6" stroke-width="0.0484" d="M200.3782-165.7146
					c3.5059-4.3784,0.4854-11.7465-5.1117-12.3919c1.6058,1.7297,3.8519,3.3097,4.0171,5.8862
					c-0.1704,2.4267-2.4267,4.585-4.9257,4.2442c-2.7676-0.4544-4.1152-3.2012-6.2476-4.6934
					c-2.2512-1.7865-5.2253-2.1015-7.9979-2.055c1.7504,1.0378,3.5989,2.0034,4.9723,3.5472
					c2.4629,2.7933,4.4973,5.9636,7.4248,8.3284c-6.485-0.9758-7.1615-10.0323-13.6827-10.9565
					c1.1669,2.2254,2.4164,4.4456,2.9844,6.924c0.7745,2.5662,0.9552,5.8707,3.8312,7.0324
					c-2.9999,1.203-3.2219,4.6418-4.0119,7.3267c-0.5783,2.3596-1.8898,4.4249-2.8501,6.6297
					c2.9482-0.6351,5.091-2.9069,6.7071-5.3182c1.6213-2.2305,3.2374-5.0342,6.2682-5.3905
					c-1.8691,1.8949-3.5782,3.9293-5.153,6.072c-1.6213,2.1944-3.9241,3.7124-6.2579,5.0497
					c2.4577-0.0826,5.1219-0.1084,7.2338-1.5645c2.2047-1.3373,3.5317-3.8157,5.9378-4.8535
					c2.8088-1.1514,6.1185,1.4509,5.8655,4.4146c-0.506,2.5197-2.7314,4.079-4.5386,5.6693
					c1.6522-0.3821,3.3716-0.8829,4.6109-2.1273c3.3664-3.0154,3.4026-9.108-0.3408-11.8291
					c-1.771-1.3683-4.0583-1.3115-6.1598-1.3476c-1.8691-0.8932-3.542-2.2254-5.597-2.7107
					c2.2667-0.4595,4.1306-1.8278,6.072-2.9947C195.9481-163.102,198.7776-163.4634,200.3782-165.7146z"/>
				<path fill="#92D8F6" stroke="#92D8F6" stroke-width="0.0484" d="M132.0472-176.1806c-1.7452,0.5266-2.9741,2.69-2.2976,4.4559
					c0.6608,2.2047,3.6659,3.0721,5.4989,1.7607c1.6936-1.0894,1.9208-3.6918,0.6661-5.1891
					C134.9335-176.1961,133.3845-176.3561,132.0472-176.1806z"/>
				<path fill="#92D8F6" stroke="#92D8F6" stroke-width="0.0484" d="M192.215-170.0672c1.9879,1.8381,5.881,0.1394,5.6745-2.6436
					c0.2272-2.2873-2.1841-4.1048-4.332-3.4026C190.7332-175.7985,189.8761-171.5594,192.215-170.0672z"/>
				<path fill="#92D8F6" stroke="#92D8F6" stroke-width="0.0484" d="M132.6203-150.8133c-2.1169,0.3408-3.6401,2.814-2.6333,4.807
					c0.8777,2.6952,5.1013,2.8346,6.3354,0.3563C138.0573-148.051,135.3207-151.4277,132.6203-150.8133z"/>
				<path fill="#92D8F6" stroke="#92D8F6" stroke-width="0.0484" d="M194.0583-150.8237c-2.7262,0.2478-4.1512,3.9654-2.1737,5.912
					c1.6936,2.0602,5.5402,1.1359,6.0101-1.518C198.4935-148.7016,196.418-151.2161,194.0583-150.8237z"/>
				<path fill="#92D8F6" stroke="#92D8F6" stroke-width="0.0484" d="M143.4994-136.8776c-2.7107,2.5455-6.1391,4.11-9.5934,5.3543
					c-2.2667,0.759-4.0635,2.3493-5.8655,3.8363c1.5077-2.8656,4.6108-4.1668,7.4455-5.3389
					c5.3647-2.1789,9.7741-6.4231,12.3609-11.5813c-3.1754-0.3408-6.3663,0.2479-9.4178,1.0843
					c-4.7348,1.3166-8.9376,4.7709-10.7087,9.4127c-2.0446,5.0239-1.6471,10.5383-1.3528,15.8203
					c0.8623-2.2564,1.6058-4.7451,3.6504-6.2528c3.8674-2.9172,9.2217-2.2925,13.2749-4.8122
					c4.0687-3.1445,4.363-8.7518,4.8277-13.4607C146.5974-140.8224,145.3891-138.566,143.4994-136.8776z"/>
				<path fill="#92D8F6" stroke="#92D8F6" stroke-width="0.0484" d="M177.7268-125.4203c-2.6333,1.1566-5.9739-1.0636-5.8913-3.9499
					c-0.1136-2.3235,1.9879-3.7176,3.4232-5.1994c2.4681-2.2977,3.7073-5.8242,3.2736-9.1597
					c-0.4854,0.7487-0.9346,1.5128-1.4147,2.2563c-2.5765,4.0325-7.4971,5.6693-10.1975,9.6037
					c0.3253-2.9947,2.9998-4.7038,5.2665-6.2476c2.5145-1.6626,5.0445-3.764,5.6383-6.893
					c-2.2719,1.1256-4.5127,2.3957-7.0118,2.9379c-2.6952,0.537-5.7364,1.1152-7.1666,3.764
					c-1.3063-2.7675-4.5333-3.0257-7.1408-3.7124c-2.5042-0.5525-4.7038-1.9104-7.0014-2.9741
					c0.666,3.351,3.5574,5.4524,6.1805,7.2906c1.9259,1.4251,4.2339,2.8656,4.8225,5.3698
					c-2.2151-2.0705-4.5902-3.9499-6.9859-5.7932c-2.0085-1.5283-3.3665-3.6814-4.4559-5.9119
					c-0.062,2.5248,0.1808,5.1581,1.5181,7.368c1.2856,2.246,3.8466,3.4956,4.8896,5.9068c1.3528,2.9327-1.9156,6.5522-4.9826,5.659
					c-2.3131-0.5731-3.6401-2.7004-5.1478-4.3475c0.3666,1.4044,0.7538,2.8605,1.6781,4.0222
					c2.7417,3.5937,8.7208,4.2081,11.922,0.8726c1.7194-1.6058,1.6368-4.0893,2.1531-6.2063
					c0.8623-1.7968,2.024-3.4439,2.7262-5.3285c0.7228,2.5662,3.0412,4.4869,3.0928,7.2493
					c0.1394,2.6591,1.993,5.1323,4.5643,5.8965c4.5282,1.7762,10.4557-1.4819,10.6208-6.5522
					C180.8919-127.9038,179.6837-126.138,177.7268-125.4203z"/>
				<path fill="#92D8F6" stroke="#92D8F6" stroke-width="0.0484" d="M199.6605-126.835c-3.3561-4.2752-1.8639-10.8429-6.196-14.4985
					c-3.5833-2.6901-8.3181-2.7004-12.5623-3.3613c2.0137,1.3734,4.2184,2.5249,5.9585,4.2752
					c3.2425,3.1187,4.8741,7.4145,6.5986,11.4677c1.0585,2.5042,3.3716,4.0635,5.6487,5.3492
					c-2.1118-0.5938-4.1513-1.7142-5.3853-3.573c-2.0602-3.0567-2.9947-6.7381-5.251-9.6812
					c-2.2615-3.3096-5.628-5.6435-9.1236-7.4868c-0.1755,4.2959,0.5938,8.7001,2.5404,12.5623
					c1.7245,3.4387,4.7966,6.1701,8.4316,7.4506c4.9567,1.9879,10.3834,1.3683,15.5932,1.3683
					C203.7498-124.1088,201.0598-124.6355,199.6605-126.835z"/>
				<path fill="#92D8F6" stroke="#92D8F6" stroke-width="0.0484" d="M147.4803-129.3495c-0.0155,3.1135,4.616,4.2701,6.2166,1.6781
					c1.9362-2.2202-0.2014-5.9429-3.0515-5.597C148.7143-133.1291,147.0879-131.3219,147.4803-129.3495z"/>
				<path fill="#92D8F6" stroke="#92D8F6" stroke-width="0.0484" d="M175.9765-133.2943c-2.0705,0.3873-3.6556,2.8605-2.5558,4.8122
					c0.9345,2.3957,4.585,2.8191,6.0927,0.7435C181.5167-130.0208,178.9712-134.265,175.9765-133.2943z"/>
			</g>
		</g>
		<g>
			<g>
				<path fill="#92D8F6" stroke="#92D8F6" stroke-width="0.0484" d="M24.847-183.8584c3.1909-2.8501,7.3732-4.0274,11.163-5.8242
					c2.246-1.012,3.4697-3.2374,4.6676-5.2614c-0.4699,2.0034-1.6264,3.8105-3.2116,5.1065
					c-1.9517,1.4973-4.3319,2.2357-6.5263,3.2838c-4.8432,2.2925-8.8447,6.2941-11.1114,11.1476
					c3.9964-0.0207,8.1425-0.346,11.7929-2.1221c4.301-1.8278,7.6933-5.7003,8.8912-10.2285
					c1.4509-4.554,0.8003-9.3714,0.8778-14.0648c-1.1411,2.7211-2.3029,5.912-5.2304,7.1666
					c-4.332,2.2719-10.1872,1.4096-13.533,5.4782c-2.4526,3.4852-2.7417,7.9618-3.1548,12.077
					C21.1191-179.4593,22.5132-182.0771,24.847-183.8584z"/>
				<path fill="#92D8F6" stroke="#92D8F6" stroke-width="0.0484" d="M40.3782-165.7146c3.5059-4.3784,0.4854-11.7465-5.1117-12.3919
					c1.6058,1.7297,3.8519,3.3097,4.0171,5.8862c-0.1704,2.4267-2.4267,4.585-4.9257,4.2442
					c-2.7676-0.4544-4.1152-3.2012-6.2476-4.6934c-2.2512-1.7865-5.2252-2.1015-7.9979-2.055
					c1.7504,1.0378,3.5989,2.0034,4.9722,3.5472c2.4629,2.7933,4.4973,5.9636,7.4248,8.3284
					c-6.4851-0.9758-7.1615-10.0323-13.6827-10.9565c1.1669,2.2254,2.4164,4.4456,2.9844,6.924
					c0.7745,2.5662,0.9552,5.8707,3.8312,7.0324c-2.9999,1.203-3.2219,4.6418-4.0119,7.3267
					c-0.5783,2.3596-1.8898,4.4249-2.8501,6.6297c2.9482-0.6351,5.091-2.9069,6.7071-5.3182
					c1.6213-2.2305,3.2374-5.0342,6.2682-5.3905c-1.8691,1.8949-3.5782,3.9293-5.153,6.072
					c-1.6213,2.1944-3.9241,3.7124-6.2579,5.0497c2.4577-0.0826,5.1219-0.1084,7.2338-1.5645
					c2.2047-1.3373,3.5317-3.8157,5.9378-4.8535c2.8088-1.1514,6.1185,1.4509,5.8655,4.4146
					c-0.506,2.5197-2.7314,4.079-4.5386,5.6693c1.6522-0.3821,3.3716-0.8829,4.6108-2.1273
					c3.3664-3.0154,3.4026-9.108-0.3408-11.8291c-1.771-1.3683-4.0583-1.3115-6.1598-1.3476
					c-1.8691-0.8932-3.542-2.2254-5.597-2.7107c2.2667-0.4595,4.1306-1.8278,6.072-2.9947
					C35.9481-163.102,38.7776-163.4634,40.3782-165.7146z"/>
				<path fill="#92D8F6" stroke="#92D8F6" stroke-width="0.0484" d="M32.215-170.0672c1.9879,1.8381,5.881,0.1394,5.6744-2.6436
					c0.2272-2.2873-2.1841-4.1048-4.332-3.4026C30.7332-175.7985,29.876-171.5594,32.215-170.0672z"/>
				<path fill="#92D8F6" stroke="#92D8F6" stroke-width="0.0484" d="M34.0583-150.8237c-2.7262,0.2478-4.1512,3.9654-2.1737,5.912
					c1.6936,2.0602,5.5402,1.1359,6.0101-1.518C38.4935-148.7016,36.418-151.2161,34.0583-150.8237z"/>
				<path fill="#92D8F6" stroke="#92D8F6" stroke-width="0.0484" d="M39.6605-126.835c-3.3561-4.2752-1.8639-10.8429-6.1959-14.4985
					c-3.5833-2.6901-8.3181-2.7004-12.5623-3.3613c2.0137,1.3734,4.2184,2.5249,5.9585,4.2752
					c3.2425,3.1187,4.8741,7.4145,6.5986,11.4677c1.0585,2.5042,3.3716,4.0635,5.6487,5.3492
					c-2.1118-0.5938-4.1513-1.7142-5.3853-3.573c-2.0601-3.0567-2.9947-6.7381-5.251-9.6812
					c-2.2615-3.3096-5.628-5.6435-9.1236-7.4868c-0.1755,4.2959,0.5938,8.7001,2.5404,12.5623
					c1.7245,3.4387,4.7967,6.1701,8.4316,7.4506c4.9567,1.9879,10.3834,1.3683,15.5932,1.3683
					C43.7498-124.1088,41.0597-124.6355,39.6605-126.835z"/>
			</g>
		</g>
		<g>
			<g>
				<path fill="#92D8F6" stroke="#92D8F6" stroke-width="0.0484" d="M84.6862-208.5641c0.4182,2.117,0.9913,4.2029,1.4612,6.3147
					c0.981,5.0239,0,10.213-1.6781,14.9787c-1.0946,3.2735-2.7727,6.3147-3.7641,9.6244c-0.7848,2.6488-0.1084,5.4111-0.0103,8.1012
					c-1.1153-2.3389-1.58-5.0032-1.0637-7.5591c0.8209-4.647,3.32-8.7827,4.3062-13.3936
					c1.5077-6.356,0.9449-13.1044-1.1927-19.2539c-4.7089,4.2855-8.6227,9.6708-10.6312,15.7584
					c-1.9879,5.9171-1.2392,12.6139,1.7916,18.0508c2.1221,3.795,4.9,7.2131,8.0495,10.2027c0-0.4389,0-1.327,0.0052-1.771
					c1.2237,3.0722,3.4594,5.5557,6.1443,7.4454c-1.2599-3.3355-3.3149-6.6245-2.7366-10.3472
					c0.9346-5.85,5.2718-10.2698,7.7811-15.4434c1.2908-2.6178,1.5954-5.7003,0.697-8.4936
					C92.1885-199.8485,88.1972-204.1753,84.6862-208.5641z"/>
			</g>
		</g>
	</g>
</pattern>
<rect fill="url(#New_Pattern)" width="2560" height="1600"/>
</svg>
